<svg aria-hidden="true" style="position: absolute; width: 0; height: 0; overflow: hidden;" version="1.1" xmlns="http://www.w3.org/2000/svg" xmlns:xlink="http://www.w3.org/1999/xlink">
<defs>
<symbol id="icon-tv" viewBox="0 0 32 32">
<path fill="#fff" style="fill: var(--color1, #fff)" d="M29.396 7.809h-10.692l4.218-5.049c0.068 0.012 0.126 0.038 0.196 0.038 0.694 0 1.256-0.56 1.256-1.253 0-0.689-0.561-1.253-1.256-1.253-0.691 0-1.256 0.564-1.256 1.253 0 0.152 0.038 0.291 0.086 0.425l-4.879 5.84h-0.46l-4.876-5.84c0.047-0.134 0.084-0.273 0.084-0.425 0-0.689-0.562-1.253-1.256-1.253-0.692 0-1.256 0.564-1.256 1.253 0 0.693 0.564 1.253 1.256 1.253 0.070 0 0.13-0.026 0.195-0.038l4.219 5.049h-10.692c-1.386 0-2.51 1.123-2.51 2.505v17.541c0 1.384 1.124 2.505 2.51 2.505h25.113c1.386 0 2.511-1.122 2.511-2.505v-17.541c0-1.382-1.124-2.505-2.511-2.505zM24.373 25.349c0 1.383-1.123 2.506-2.512 2.506h-15.066c-1.386 0-2.512-1.123-2.512-2.506v-12.528c0-1.384 1.125-2.507 2.512-2.507h15.066c1.388 0 2.512 1.122 2.512 2.507v12.528zM28.073 14.151c-0.99 0-1.794-0.802-1.794-1.79s0.803-1.789 1.794-1.789c0.989 0 1.793 0.801 1.793 1.789s-0.803 1.79-1.793 1.79z"></path>
</symbol>
<symbol id="icon-lab" viewBox="0 0 24 32">
<path fill="#fff" style="fill: var(--color1, #fff)" d="M17.233 10.817l5.769 15.561c0.339 0.822 0.239 1.786-0.279 2.551s-1.382 1.22-2.311 1.22h-16.418c-0.929 0-1.792-0.455-2.311-1.219-0.518-0.766-0.618-1.732-0.268-2.583l5.758-15.531v-4.58c-1.091-0.377-1.872-1.403-1.872-2.607v-0.747c0-1.523 1.249-2.76 2.785-2.76h8.234c1.535 0 2.785 1.238 2.785 2.76v0.747c0 1.204-0.783 2.232-1.872 2.607v4.579zM8.682 21.909c-0.522 0-0.947 0.419-0.947 0.941 0 0.521 0.424 0.94 0.947 0.94 0.526 0 0.951-0.42 0.951-0.94 0-0.522-0.425-0.941-0.951-0.941zM15.492 25.294c0-0.894-0.733-1.624-1.64-1.624s-1.639 0.73-1.639 1.624c0 0.898 0.732 1.628 1.639 1.628s1.64-0.73 1.64-1.628zM13.64 18.937c-0.654 0-1.184 0.527-1.184 1.171 0 0.646 0.53 1.171 1.184 1.171 0.65 0 1.18-0.526 1.18-1.171 0-0.644-0.529-1.171-1.18-1.171zM9.015 5.478v5.663l-2.149 5.795h0.085c0 0 8.789-0.143 9.992-1.382 0.013-0.013 0.024-0.023 0.036-0.032 0.009-0.008 0.018-0.015 0.027-0.024l-1.616-4.357v-6.576h0.921c0.528 0 0.951-0.419 0.951-0.934v-0.747c0-0.516-0.423-0.934-0.943-0.934h-8.234c-0.52 0-0.943 0.419-0.943 0.934v0.747c0 0.515 0.423 0.934 0.943 0.934h0.921l0.008 0.913zM12.843 13.385c0-0.699-0.575-1.271-1.281-1.271-0.71 0-1.284 0.572-1.284 1.271 0 0.702 0.574 1.273 1.284 1.273 0.706 0 1.281-0.571 1.281-1.273z"></path>
</symbol>
<symbol id="icon-cup" viewBox="0 0 32 32">
<path fill="#fff" style="fill: var(--color1, #fff)" d="M14.926 12.759c-0.466-0.043-1.356-0.351-1.779-1.235-0.525-1.095-0.141-2.657 1.142-4.64 0.099-0.152 0.19-0.298 0.275-0.439l0.041-0.069c1.109-1.864 1.007-2.677 0.911-2.939-0.065-0.179-0.179-0.236-0.184-0.237-0.411-0.121-0.666-0.596-0.534-1.046 0.13-0.443 0.609-0.703 1.050-0.573 0.089 0.026 0.895 0.286 1.252 1.268 0.398 1.093 0.036 2.591-1.077 4.451-1.048 1.953-0.241 4.297-0.232 4.321 0.098 0.274 0.052 0.577-0.126 0.809-0.16 0.208-0.41 0.332-0.668 0.332l-0.071-0.003zM26.86 27.16c-1.133-0.080-2.43-0.144-3.83-0.192 1.277-1.111 2.355-2.551 3.148-4.226 0.387 0.39 0.868 0.675 1.413 0.808 0.238 0.059 0.48 0.088 0.719 0.088 0.548 0 1.087-0.151 1.567-0.446 0.69-0.424 1.175-1.093 1.365-1.884s0.064-1.61-0.356-2.305c-0.704-1.166-2.063-1.672-3.312-1.359 0.054-0.543 0.091-1.093 0.091-1.655 0-0.586-0.471-1.061-1.052-1.061h-19.474c-0.581 0-1.052 0.475-1.052 1.061 0 4.543 1.835 8.557 4.629 10.981-1.397 0.048-2.692 0.111-3.823 0.191-3.939 0.278-5.084 0.542-5.084 1.758s1.145 1.48 5.084 1.758c2.67 0.188 6.216 0.292 9.983 0.292s7.313-0.104 9.983-0.292c3.939-0.278 5.083-0.543 5.083-1.758s-1.145-1.48-5.083-1.758zM27.364 19.081c0.004-0.003 0.008-0.004 0.012-0.005s0.008-0.002 0.012-0.005c0.829-0.509 1.914-0.243 2.419 0.593 0.245 0.405 0.318 0.881 0.207 1.343s-0.393 0.85-0.795 1.096c-0.401 0.248-0.875 0.321-1.331 0.21s-0.844-0.396-1.088-0.802c-0.013-0.022-0.030-0.038-0.048-0.054-0.009-0.009-0.019-0.017-0.027-0.027 0.27-0.75 0.482-1.536 0.638-2.349zM8.23 17.050h17.294c-0.413 5.72-4.134 10.21-8.647 10.21s-8.233-4.491-8.647-10.21zM19.475 12.918c0.242 0 0.476-0.115 0.627-0.31 0.168-0.218 0.213-0.503 0.12-0.761v-0c-0.006-0.016-0.456-1.345 0.119-2.416 0.739-1.234 0.963-2.207 0.684-2.973-0.258-0.708-0.834-0.915-0.95-0.95-0.41-0.12-0.866 0.131-0.985 0.54-0.061 0.205-0.039 0.421 0.063 0.609 0.1 0.187 0.267 0.324 0.469 0.385-0.049-0.014-0.084-0.029-0.086-0.031 0.015 0.042 0.131 0.444-0.53 1.553l-0.049 0.081c-0.046 0.076-0.095 0.154-0.147 0.235-0.857 1.324-1.092 2.345-0.719 3.12 0.29 0.608 0.886 0.873 1.325 0.916l0.059 0.002z"></path>
</symbol>
<symbol id="icon-telegram" viewBox="0 0 34 32">
<path fill="#fff" style="fill: var(--color1, #fff)" d="M32.557 1.398c0.111-0.058 0.247-0.044 0.347 0.033 0.098 0.078 0.142 0.205 0.113 0.328l-5.821 23.763c-0.021 0.086-0.077 0.158-0.154 0.203-0.049 0.027-0.105 0.042-0.16 0.042-0.031 0-0.063-0.005-0.093-0.014l-11.644-3.512c-0.104-0.031-0.184-0.112-0.216-0.215-0.030-0.104-0.006-0.215 0.063-0.297l11.591-13.584-15.090 12.772c-0.084 0.077-0.204 0.102-0.313 0.067l-9.921-3.124c-0.124-0.040-0.213-0.151-0.224-0.279-0.010-0.13 0.058-0.252 0.175-0.312l31.348-15.871zM15.334 24.731l3.218 0.98c0.096 0.029 0.173 0.102 0.208 0.195 0.035 0.092 0.024 0.197-0.030 0.281l-3.218 5.034c-0.062 0.094-0.165 0.149-0.273 0.149-0.031 0-0.061-0.005-0.090-0.012-0.139-0.040-0.234-0.165-0.234-0.307v-6.014c0-0.102 0.048-0.198 0.131-0.258s0.19-0.080 0.287-0.048z"></path>
</symbol>
</defs>
</svg>
